<?xml version="1.0" encoding="utf-8"?>
<svg width="1708px" height="922px" viewBox="0 0 1708 922" version="1.1" xmlns:xlink="http://www.w3.org/1999/xlink" xmlns="http://www.w3.org/2000/svg">
  <desc>Created with Lunacy</desc>
  <defs>
    <linearGradient x1="0.00234192028" y1="0.591836751" x2="1.00222409" y2="0.591836751" id="gradient_1">
      <stop offset="0.486577183" stop-color="#30002E" stop-opacity="0.8784314" />
      <stop offset="1" stop-color="#B500B5" stop-opacity="0.549019635" />
    </linearGradient>
    <linearGradient x1="0.5" y1="0" x2="0.5" y2="1" id="gradient_2">
      <stop offset="0" stop-color="#830082" />
      <stop offset="1" stop-color="#910061" />
    </linearGradient>
    <linearGradient x1="0.00234192028" y1="0.591836751" x2="1.00222409" y2="0.591836751" id="gradient_3">
      <stop offset="0.624161065" stop-color="#30002E" stop-opacity="0.8784314" />
      <stop offset="1" stop-color="#CF0080" stop-opacity="0.698039234" />
    </linearGradient>
    <linearGradient x1="0.00234192028" y1="0.591836751" x2="1.00222409" y2="0.591836751" id="gradient_4">
      <stop offset="0.6979866" stop-color="#30002E" stop-opacity="0.8784314" />
      <stop offset="1" stop-color="#B500B5" stop-opacity="0.549019635" />
    </linearGradient>
    <linearGradient x1="0.00234192028" y1="0.591836751" x2="1.00222409" y2="0.591836751" id="gradient_5">
      <stop offset="0.7718121" stop-color="#30002E" stop-opacity="0.8784314" />
      <stop offset="1" stop-color="#CF0080" stop-opacity="0.698039234" />
    </linearGradient>
    <linearGradient x1="0.00234192028" y1="0.591836751" x2="1.00222409" y2="0.591836751" id="gradient_6">
      <stop offset="0.627516747" stop-color="#30002E" stop-opacity="0.8784314" />
      <stop offset="1" stop-color="#B500B5" stop-opacity="0.698039234" />
    </linearGradient>
    <linearGradient x1="0.00234192028" y1="0.591836751" x2="1.00222409" y2="0.591836751" id="gradient_7">
      <stop offset="0.775167763" stop-color="#30002E" stop-opacity="0.8" />
      <stop offset="1" stop-color="#CF0080" stop-opacity="0.698039234" />
    </linearGradient>
    <linearGradient x1="0.00234192028" y1="0.591836751" x2="1.00222409" y2="0.591836751" id="gradient_8">
      <stop offset="0.8456376" stop-color="#30002E" stop-opacity="0.8" />
      <stop offset="1" stop-color="#B500B5" stop-opacity="0.698039234" />
    </linearGradient>
  </defs>
  <g id="JAVA" transform="translate(0 823)">
    <path d="M0 0L1708 0L1708 98L0 98L0 0Z" id="Rectangle-9" fill="url(#gradient_1)" stroke="none" />
    <g id="Java" fill="#EEEEEE" transform="translate(23 0)">
      <path d="M20.76 34.8459L25.08 34.8459L25.08 31.0059L8.64 31.0059L8.64 34.8459L16.38 34.8459L16.38 60.0459Q16.38 62.9859 14.97 64.7259Q13.56 66.4659 10.38 66.4659Q8.4 66.4659 6.93 65.5959Q5.46 64.7259 4.2 62.2659L1.02 64.6659Q2.28 67.3059 4.59 68.9559Q6.9 70.6059 10.74 70.6059Q15.48 70.6059 18.12 67.9659Q20.76 65.3259 20.76 60.0459L20.76 34.8459ZM36.66 43.3659Q34.32 43.9659 32.22 45.3459L31.26 51.5259L34.74 51.9459L35.76 47.3259Q37.98 46.2459 40.92 46.2459Q44.52 46.2459 45.75 48.0459Q46.98 49.8459 46.98 52.7259L46.98 55.1259Q45.9 55.0059 44.67 54.9459Q43.44 54.8859 42.24 54.8859Q37.74 54.8859 33.75 56.4759Q29.76 58.0659 29.76 63.1059Q29.76 67.3659 32.49 68.9859Q35.22 70.6059 37.86 70.6059Q41.1 70.6059 43.41 68.9259Q45.72 67.2459 46.98 65.0859L46.98 65.2059Q47.1 70.6059 51.84 70.6059Q53.7 70.6059 55.32 69.7059L55.26 66.9459Q54.48 67.3059 53.46 67.3059Q51.18 67.3059 51.18 64.4259L51.18 51.7059Q51.18 42.7659 41.64 42.7659Q39 42.7659 36.66 43.3659ZM96.18 43.3659Q93.84 43.9659 91.74 45.3459L90.78 51.5259L94.26 51.9459L95.28 47.3259Q97.5 46.2459 100.44 46.2459Q104.04 46.2459 105.27 48.0459Q106.5 49.8459 106.5 52.7259L106.5 55.1259Q105.42 55.0059 104.19 54.9459Q102.96 54.8859 101.76 54.8859Q97.26 54.8859 93.27 56.4759Q89.28 58.0659 89.28 63.1059Q89.28 67.3659 92.01 68.9859Q94.74 70.6059 97.38 70.6059Q100.62 70.6059 102.93 68.9259Q105.24 67.2459 106.5 65.0859L106.5 65.2059Q106.62 70.6059 111.36 70.6059Q113.22 70.6059 114.84 69.7059L114.78 66.9459Q114 67.3059 112.98 67.3059Q110.7 67.3059 110.7 64.4259L110.7 51.7059Q110.7 42.7659 101.16 42.7659Q98.52 42.7659 96.18 43.3659ZM86.34 46.7259L83.1 46.7259L73.32 70.0059L70.08 70.0059L59.88 46.7259L56.76 46.7259L56.76 43.3059L69.06 43.3059L69.06 46.7259L64.44 46.7259L71.88 64.3059L72.24 64.3059L78.9 46.7259L74.64 46.7259L74.64 43.3059L86.34 43.3059L86.34 46.7259ZM46.98 57.9459L46.98 59.9859Q46.74 63.2859 44.31 65.2059Q41.88 67.1259 39.12 67.1259Q37.38 67.1259 35.76 66.1659Q34.14 65.2059 34.14 62.6259Q34.14 59.5059 36.57 58.5759Q39 57.6459 42 57.6459Q43.32 57.6459 44.58 57.7659Q45.84 57.8859 46.98 57.9459ZM106.5 57.9459L106.5 59.9859Q106.26 63.2859 103.83 65.2059Q101.4 67.1259 98.64 67.1259Q96.9 67.1259 95.28 66.1659Q93.66 65.2059 93.66 62.6259Q93.66 59.5059 96.09 58.5759Q98.52 57.6459 101.52 57.6459Q102.84 57.6459 104.1 57.7659Q105.36 57.8859 106.5 57.9459Z" />
    </g>
    <path d="M0 0L23 0L23 98L0 98L0 0Z" transform="translate(854 0.0004882813)" id="Rectangle-17" fill="url(#gradient_2)" stroke="none" />
  </g>
  <g id="LUA" transform="translate(0 707.9995)">
    <path d="M0 0L1708 0L1708 98L0 98L0 0Z" id="Rectangle-9" fill="url(#gradient_3)" stroke="none" />
    <g id="Lua" fill="#EEEEEE" transform="translate(23 0)">
      <path d="M30.66 70.0059L2.52 70.0059L2.52 66.1659L7.44 66.1659L7.44 34.8459L2.52 34.8459L2.52 31.0059L18.36 31.0059L18.36 34.8459L11.82 34.8459L11.82 66.1659L26.76 66.1659L27.96 57.2259L31.86 57.5259L30.66 70.0059ZM75.66 43.3659Q73.32 43.9659 71.22 45.3459L70.26 51.5259L73.74 51.9459L74.76 47.3259Q76.98 46.2459 79.92 46.2459Q83.52 46.2459 84.75 48.0459Q85.98 49.8459 85.98 52.7259L85.98 55.1259Q84.9 55.0059 83.67 54.9459Q82.44 54.8859 81.24 54.8859Q76.74 54.8859 72.75 56.4759Q68.76 58.0659 68.76 63.1059Q68.76 67.3659 71.49 68.9859Q74.22 70.6059 76.86 70.6059Q80.1 70.6059 82.41 68.9259Q84.72 67.2459 85.98 65.0859L85.98 65.2059Q86.1 70.6059 90.84 70.6059Q92.7 70.6059 94.32 69.7059L94.26 66.9459Q93.48 67.3059 92.46 67.3059Q90.18 67.3059 90.18 64.4259L90.18 51.7059Q90.18 42.7659 80.64 42.7659Q78 42.7659 75.66 43.3659ZM65.46 70.0059L56.46 70.0059L56.46 64.9659Q55.2 67.4859 52.77 69.0459Q50.34 70.6059 47.16 70.6059Q43.26 70.6059 40.59 68.1759Q37.92 65.7459 37.92 60.4059L37.92 46.7259L33.24 46.7259L33.24 43.3059L42.12 43.3059L42.12 59.2059Q42.12 63.5259 43.92 65.2659Q45.72 67.0059 48.54 67.0059Q51.96 67.0059 54.15 64.4259Q56.34 61.8459 56.46 58.9659L56.46 46.7259L50.88 46.7259L50.88 43.3059L60.66 43.3059L60.66 66.5859L65.46 66.5859L65.46 70.0059ZM83.58 57.7659Q84.84 57.8859 85.98 57.9459L85.98 59.9859Q85.74 63.2859 83.31 65.2059Q80.88 67.1259 78.12 67.1259Q76.38 67.1259 74.76 66.1659Q73.14 65.2059 73.14 62.6259Q73.14 59.5059 75.57 58.5759Q78 57.6459 81 57.6459Q82.32 57.6459 83.58 57.7659Z" />
    </g>
    <path d="M0 0L23 0L23 98L0 98L0 0Z" transform="translate(1093 0.0004882813)" id="Rectangle-16" fill="url(#gradient_2)" stroke="none" />
  </g>
  <g id="SQL" transform="translate(0 588.9995)">
    <path d="M0 0L1708 0L1708 98L0 98L0 0Z" transform="translate(0 0.0004882813)" id="Rectangle-9" fill="url(#gradient_4)" stroke="none" />
    <g id="SQL" fill="#EEEEEE" transform="translate(23 0.0004882813)">
      <path d="M29.4 59.0859Q29.4 64.7259 25.41 67.6659Q21.42 70.6059 15.48 70.6059Q7.32 70.6059 2.94 67.4259L3.78 59.7459L7.38 60.1059L7.14 65.0259Q9.12 66.0459 11.1 66.4059Q13.08 66.7659 15.24 66.7659Q19.08 66.7659 21.87 65.1159Q24.66 63.4659 24.66 59.5059Q24.66 55.0659 21.6 53.7159Q18.54 52.3659 14.94 51.5259Q12.18 50.9259 9.48 49.9959Q6.78 49.0659 4.98 47.0559Q3.18 45.0459 3.18 41.2059Q3.18 35.6859 6.87 33.0459Q10.56 30.4059 15.6 30.4059Q18.84 30.4059 22.14 31.3059Q25.44 32.2059 27.3 33.6459L27.66 41.3859L24.06 41.7459L23.46 35.9259Q21.6 34.9659 19.68 34.6359Q17.76 34.3059 16.02 34.3059Q12.36 34.3059 10.11 35.9559Q7.86 37.6059 7.86 40.7259Q7.86 44.3859 10.56 45.6459Q13.26 46.9059 16.56 47.6859Q19.2 48.2859 22.17 49.2159Q25.14 50.1459 27.27 52.3959Q29.4 54.6459 29.4 59.0859ZM73.38 50.5059Q73.38 54.6459 71.94 58.2759Q70.5 61.9059 67.98 64.6659L72.48 69.2259L69.72 71.9859L64.98 67.1859Q60.12 70.6059 53.7 70.6059Q44.88 70.6059 39.6 64.6959Q34.32 58.7859 34.32 50.5059Q34.32 42.1059 39.75 36.2559Q45.18 30.4059 53.82 30.4059Q62.58 30.4059 67.98 36.2859Q73.38 42.1659 73.38 50.5059ZM78.66 70.0059L106.8 70.0059L108 57.5259L104.1 57.2259L102.9 66.1659L87.96 66.1659L87.96 34.8459L94.5 34.8459L94.5 31.0059L78.66 31.0059L78.66 34.8459L83.58 34.8459L83.58 66.1659L78.66 66.1659L78.66 70.0059ZM68.64 50.5659Q68.64 43.5459 64.62 38.9559Q60.6 34.3659 53.82 34.3659Q46.86 34.3659 42.96 39.0459Q39.06 43.7259 39.06 50.4459Q39.06 57.0459 42.96 61.8459Q46.86 66.6459 53.94 66.6459Q58.68 66.6459 62.1 64.2459L54.84 56.9259L57.66 54.1659L64.98 61.6059Q68.64 57.2859 68.64 50.5659Z" />
    </g>
    <path d="M0 0L23 0L23 98L0 98L0 0Z" transform="translate(1221 0.0004882813)" id="Rectangle-15" fill="url(#gradient_2)" stroke="none" />
  </g>
  <g id="SCALA" transform="translate(0 470)">
    <path d="M0 0L1708 0L1708 98L0 98L0 0Z" id="Rectangle-9" fill="url(#gradient_5)" stroke="none" />
    <g id="Scala" fill="#EEEEEE" transform="translate(23 0)">
      <path d="M103.44 70.0059L89.88 70.0059L89.88 66.5859L94.56 66.5859L94.56 32.1459L89.82 32.1459L89.82 28.7259L98.76 28.7259L98.76 66.5859L103.44 66.5859L103.44 70.0059ZM29.4 59.0859Q29.4 64.7259 25.41 67.6659Q21.42 70.6059 15.48 70.6059Q7.32 70.6059 2.94 67.4259L3.78 59.7459L7.38 60.1059L7.14 65.0259Q9.12 66.0459 11.1 66.4059Q13.08 66.7659 15.24 66.7659Q19.08 66.7659 21.87 65.1159Q24.66 63.4659 24.66 59.5059Q24.66 55.0659 21.6 53.7159Q18.54 52.3659 14.94 51.5259Q12.18 50.9259 9.48 49.9959Q6.78 49.0659 4.98 47.0559Q3.18 45.0459 3.18 41.2059Q3.18 35.6859 6.87 33.0459Q10.56 30.4059 15.6 30.4059Q18.84 30.4059 22.14 31.3059Q25.44 32.2059 27.3 33.6459L27.66 41.3859L24.06 41.7459L23.46 35.9259Q21.6 34.9659 19.68 34.6359Q17.76 34.3059 16.02 34.3059Q12.36 34.3059 10.11 35.9559Q7.86 37.6059 7.86 40.7259Q7.86 44.3859 10.56 45.6459Q13.26 46.9059 16.56 47.6859Q19.2 48.2859 22.17 49.2159Q25.14 50.1459 27.27 52.3959Q29.4 54.6459 29.4 59.0859ZM57.66 61.0059Q57.12 64.4859 54.51 67.5459Q51.9 70.6059 46.38 70.6059Q40.86 70.6059 37.56 67.0359Q34.26 63.4659 34.26 57.0459Q34.26 51.5259 37.38 47.1459Q40.5 42.7659 46.74 42.7659Q49.38 42.7659 51.6 43.3659Q53.82 43.9659 55.86 45.5259L56.88 51.9459L53.4 52.3659L52.38 47.8659Q49.98 46.3659 46.68 46.3659Q42.42 46.3659 40.56 49.4259Q38.7 52.4859 38.7 56.8059Q38.7 61.6059 40.8 64.3059Q42.9 67.0059 46.86 67.0059Q52.86 67.0059 54.06 60.2259L57.66 61.0059ZM69 43.3659Q66.66 43.9659 64.56 45.3459L63.6 51.5259L67.08 51.9459L68.1 47.3259Q70.32 46.2459 73.26 46.2459Q76.86 46.2459 78.09 48.0459Q79.32 49.8459 79.32 52.7259L79.32 55.1259Q78.24 55.0059 77.01 54.9459Q75.78 54.8859 74.58 54.8859Q70.08 54.8859 66.09 56.4759Q62.1 58.0659 62.1 63.1059Q62.1 67.3659 64.83 68.9859Q67.56 70.6059 70.2 70.6059Q73.44 70.6059 75.75 68.9259Q78.06 67.2459 79.32 65.0859L79.32 65.2059Q79.44 70.6059 84.18 70.6059Q86.04 70.6059 87.66 69.7059L87.6 66.9459Q86.82 67.3059 85.8 67.3059Q83.52 67.3059 83.52 64.4259L83.52 51.7059Q83.52 42.7659 73.98 42.7659Q71.34 42.7659 69 43.3659ZM113.94 43.3659Q111.6 43.9659 109.5 45.3459L108.54 51.5259L112.02 51.9459L113.04 47.3259Q115.26 46.2459 118.2 46.2459Q121.8 46.2459 123.03 48.0459Q124.26 49.8459 124.26 52.7259L124.26 55.1259Q123.18 55.0059 121.95 54.9459Q120.72 54.8859 119.52 54.8859Q115.02 54.8859 111.03 56.4759Q107.04 58.0659 107.04 63.1059Q107.04 67.3659 109.77 68.9859Q112.5 70.6059 115.14 70.6059Q118.38 70.6059 120.69 68.9259Q123 67.2459 124.26 65.0859L124.26 65.2059Q124.38 70.6059 129.12 70.6059Q130.98 70.6059 132.6 69.7059L132.54 66.9459Q131.76 67.3059 130.74 67.3059Q128.46 67.3059 128.46 64.4259L128.46 51.7059Q128.46 42.7659 118.92 42.7659Q116.28 42.7659 113.94 43.3659ZM79.32 57.9459L79.32 59.9859Q79.08 63.2859 76.65 65.2059Q74.22 67.1259 71.46 67.1259Q69.72 67.1259 68.1 66.1659Q66.48 65.2059 66.48 62.6259Q66.48 59.5059 68.91 58.5759Q71.34 57.6459 74.34 57.6459Q75.66 57.6459 76.92 57.7659Q78.18 57.8859 79.32 57.9459ZM124.26 57.9459L124.26 59.9859Q124.02 63.2859 121.59 65.2059Q119.16 67.1259 116.4 67.1259Q114.66 67.1259 113.04 66.1659Q111.42 65.2059 111.42 62.6259Q111.42 59.5059 113.85 58.5759Q116.28 57.6459 119.28 57.6459Q120.6 57.6459 121.86 57.7659Q123.12 57.8859 124.26 57.9459Z" />
    </g>
    <path d="M0 0L23 0L23 98L0 98L0 0Z" transform="translate(1347 0.0004882813)" id="Rectangle-14" fill="url(#gradient_2)" stroke="none" />
  </g>
  <g id="REACT" transform="translate(0 353)">
    <path d="M0 0L1708 0L1708 98L0 98L0 0Z" id="Rectangle-9" fill="url(#gradient_6)" stroke="none" />
    <g id="React" fill="#EEEEEE" transform="translate(23 0)">
      <path d="M36.42 70.0059L28.62 70.0059L20.22 53.6859L11.88 53.6859L11.88 66.1659L17.1 66.1659L17.1 70.0059L2.52 70.0059L2.52 66.1659L7.44 66.1659L7.44 34.8459L2.52 34.8459L2.52 31.0059L19.38 31.0059Q26.64 31.0059 29.76 34.1559Q32.88 37.3059 32.88 42.0459Q32.88 45.8259 30.78 48.7959Q28.68 51.7659 24.54 52.8459L31.5 66.1659L36.42 66.1659L36.42 70.0059ZM135.42 70.6059Q142.8 70.6059 143.88 62.8059L140.7 61.7859Q140.1 65.0259 138.75 65.9859Q137.4 66.9459 135.84 66.9459Q133.44 66.9459 132.39 65.4759Q131.34 64.0059 131.34 61.6059L131.34 46.6659L141.78 46.6659L141.78 43.3059L131.34 43.3059L131.34 34.7259L127.14 34.7259L127.14 43.3059L122.82 43.3059L122.82 46.6659L127.14 46.6659L127.14 62.1459Q127.14 66.0459 129.27 68.3259Q131.4 70.6059 135.42 70.6059ZM28.26 42.2259Q28.26 38.3859 26.04 36.6159Q23.82 34.8459 18.84 34.8459L11.88 34.8459L11.88 50.0259L18.96 50.0259Q23.94 50.0259 26.1 47.9559Q28.26 45.8859 28.26 42.2259ZM63.12 62.3259Q62.58 65.7459 59.7 68.1759Q56.82 70.6059 51.9 70.6059Q46.26 70.6059 42.78 67.0659Q39.3 63.5259 39.3 57.0459Q39.3 50.8059 42.6 46.7859Q45.9 42.7659 51.54 42.7659Q57.06 42.7659 59.94 46.2459Q62.82 49.7259 62.88 54.4659Q62.88 56.0259 62.52 57.6459L43.74 57.6459Q44.1 67.0059 52.2 67.0059Q55.38 67.0059 57.18 65.5059Q58.98 64.0059 59.58 61.5459L63.12 62.3259ZM74.52 43.3659Q72.18 43.9659 70.08 45.3459L69.12 51.5259L72.6 51.9459L73.62 47.3259Q75.84 46.2459 78.78 46.2459Q82.38 46.2459 83.61 48.0459Q84.84 49.8459 84.84 52.7259L84.84 55.1259Q83.76 55.0059 82.53 54.9459Q81.3 54.8859 80.1 54.8859Q75.6 54.8859 71.61 56.4759Q67.62 58.0659 67.62 63.1059Q67.62 67.3659 70.35 68.9859Q73.08 70.6059 75.72 70.6059Q78.96 70.6059 81.27 68.9259Q83.58 67.2459 84.84 65.0859L84.84 65.2059Q84.96 70.6059 89.7 70.6059Q91.56 70.6059 93.18 69.7059L93.12 66.9459Q92.34 67.3059 91.32 67.3059Q89.04 67.3059 89.04 64.4259L89.04 51.7059Q89.04 42.7659 79.5 42.7659Q76.86 42.7659 74.52 43.3659ZM119.88 61.0059Q119.34 64.4859 116.73 67.5459Q114.12 70.6059 108.6 70.6059Q103.08 70.6059 99.78 67.0359Q96.48 63.4659 96.48 57.0459Q96.48 51.5259 99.6 47.1459Q102.72 42.7659 108.96 42.7659Q111.6 42.7659 113.82 43.3659Q116.04 43.9659 118.08 45.5259L119.1 51.9459L115.62 52.3659L114.6 47.8659Q112.2 46.3659 108.9 46.3659Q104.64 46.3659 102.78 49.4259Q100.92 52.4859 100.92 56.8059Q100.92 61.6059 103.02 64.3059Q105.12 67.0059 109.08 67.0059Q115.08 67.0059 116.28 60.2259L119.88 61.0059ZM58.44 54.5259Q58.74 51.5259 57.03 48.8859Q55.32 46.2459 51.42 46.2459Q47.7 46.2459 45.96 48.7059Q44.22 51.1659 43.8 54.5259L58.44 54.5259ZM84.84 57.9459L84.84 59.9859Q84.6 63.2859 82.17 65.2059Q79.74 67.1259 76.98 67.1259Q75.24 67.1259 73.62 66.1659Q72 65.2059 72 62.6259Q72 59.5059 74.43 58.5759Q76.86 57.6459 79.86 57.6459Q81.18 57.6459 82.44 57.7659Q83.7 57.8859 84.84 57.9459Z" />
    </g>
    <path d="M0 0L23 0L23 98L0 98L0 0Z" transform="translate(1093 0)" id="Rectangle-13" fill="url(#gradient_2)" stroke="none" />
  </g>
  <g id="CSS" transform="translate(0 236)">
    <path d="M0 0L1708 0L1708 98L0 98L0 0Z" id="Rectangle-9" fill="url(#gradient_7)" stroke="none" />
    <g id="CSS" fill="#EEEEEE" transform="translate(23 0)">
      <path d="M34.5 67.0059Q29.82 70.6059 21.48 70.6059Q12.96 70.6059 7.68 64.9359Q2.4 59.2659 2.4 50.7459Q2.4 45.3459 4.68 40.6959Q6.96 36.0459 11.1 33.2259Q15.24 30.4059 20.94 30.4059Q25.8 30.4059 29.07 31.6659Q32.34 32.9259 34.74 34.9659L35.82 42.4659L32.04 42.8259L30.96 37.1259Q29.04 35.8659 26.82 35.1159Q24.6 34.3659 21.3 34.3659Q14.88 34.3659 10.95 38.9259Q7.02 43.4859 7.02 50.5659Q7.02 57.8259 11.07 62.2359Q15.12 66.6459 22.08 66.6459Q27.18 66.6459 30.66 64.9059L31.8 59.1459L35.52 59.5059L34.5 67.0059ZM68.16 59.0859Q68.16 64.7259 64.17 67.6659Q60.18 70.6059 54.24 70.6059Q46.08 70.6059 41.7 67.4259L42.54 59.7459L46.14 60.1059L45.9 65.0259Q47.88 66.0459 49.86 66.4059Q51.84 66.7659 54 66.7659Q57.84 66.7659 60.63 65.1159Q63.42 63.4659 63.42 59.5059Q63.42 55.0659 60.36 53.7159Q57.3 52.3659 53.7 51.5259Q50.94 50.9259 48.24 49.9959Q45.54 49.0659 43.74 47.0559Q41.94 45.0459 41.94 41.2059Q41.94 35.6859 45.63 33.0459Q49.32 30.4059 54.36 30.4059Q57.6 30.4059 60.9 31.3059Q64.2 32.2059 66.06 33.6459L66.42 41.3859L62.82 41.7459L62.22 35.9259Q60.36 34.9659 58.44 34.6359Q56.52 34.3059 54.78 34.3059Q51.12 34.3059 48.87 35.9559Q46.62 37.6059 46.62 40.7259Q46.62 44.3859 49.32 45.6459Q52.02 46.9059 55.32 47.6859Q57.96 48.2859 60.93 49.2159Q63.9 50.1459 66.03 52.3959Q68.16 54.6459 68.16 59.0859ZM96.15 67.6659Q100.14 64.7259 100.14 59.0859Q100.14 54.6459 98.01 52.3959Q95.88 50.1459 92.91 49.2159Q89.94 48.2859 87.3 47.6859Q84 46.9059 81.3 45.6459Q78.6 44.3859 78.6 40.7259Q78.6 37.6059 80.85 35.9559Q83.1 34.3059 86.76 34.3059Q88.5 34.3059 90.42 34.6359Q92.34 34.9659 94.2 35.9259L94.8 41.7459L98.4 41.3859L98.04 33.6459Q96.18 32.2059 92.88 31.3059Q89.58 30.4059 86.34 30.4059Q81.3 30.4059 77.61 33.0459Q73.92 35.6859 73.92 41.2059Q73.92 45.0459 75.72 47.0559Q77.52 49.0659 80.22 49.9959Q82.92 50.9259 85.68 51.5259Q89.28 52.3659 92.34 53.7159Q95.4 55.0659 95.4 59.5059Q95.4 63.4659 92.61 65.1159Q89.82 66.7659 85.98 66.7659Q83.82 66.7659 81.84 66.4059Q79.86 66.0459 77.88 65.0259L78.12 60.1059L74.52 59.7459L73.68 67.4259Q78.06 70.6059 86.22 70.6059Q92.16 70.6059 96.15 67.6659Z" />
    </g>
    <path d="M0 0L23 0L23 98L0 98L0 0Z" transform="translate(1347 0)" id="Rectangle-12" fill="url(#gradient_2)" stroke="none" />
  </g>
  <g id="HTML" transform="translate(0 120)">
    <path d="M0 0L1708 0L1708 98L0 98L0 0Z" id="Rectangle-9" fill="url(#gradient_8)" stroke="none" />
    <g id="HTML" fill="#EEEEEE" transform="translate(23 0)">
      <path d="M28.56 70.0059L42.78 70.0059L42.78 66.1659L37.86 66.1659L37.86 34.8459L42.78 34.8459L42.78 31.0059L28.56 31.0059L28.56 34.8459L33.48 34.8459L33.48 48.2859L11.82 48.2859L11.82 34.8459L16.74 34.8459L16.74 31.0059L2.52 31.0059L2.52 34.8459L7.44 34.8459L7.44 66.1659L2.52 66.1659L2.52 70.0059L16.74 70.0059L16.74 66.1659L11.82 66.1659L11.82 52.0059L33.48 52.0059L33.48 66.1659L28.56 66.1659L28.56 70.0059ZM77.34 43.1859L81.24 42.8859L80.04 31.0059L47.7 31.0059L46.56 42.8859L50.4 43.1859L51.6 34.8459L61.68 34.8459L61.68 66.1659L54.96 66.1659L54.96 70.0059L72.96 70.0059L72.96 66.1659L66.06 66.1659L66.06 34.8459L76.14 34.8459L77.34 43.1859ZM133.02 34.8459L127.92 34.8459L127.92 66.1659L132.78 66.1659L132.78 70.0059L118.92 70.0059L118.92 66.1659L123.48 66.1659L123.48 41.3259L123.24 41.3259L110.16 68.0259L107.82 68.0259L94.44 41.1459L94.2 41.1459L94.2 66.1659L98.88 66.1659L98.88 70.0059L85.08 70.0059L85.08 66.1659L90 66.1659L90 34.8459L84.9 34.8459L84.9 31.0059L93.84 31.0059L109.02 61.5459L109.26 61.5459L124.02 31.0059L133.02 31.0059L133.02 34.8459ZM137.94 70.0059L166.08 70.0059L167.28 57.5259L163.38 57.2259L162.18 66.1659L147.24 66.1659L147.24 34.8459L153.78 34.8459L153.78 31.0059L137.94 31.0059L137.94 34.8459L142.86 34.8459L142.86 66.1659L137.94 66.1659L137.94 70.0059Z" />
    </g>
    <path d="M0 0L23 0L23 98L0 98L0 0Z" transform="translate(1467 0)" id="Rectangle-11" fill="url(#gradient_2)" stroke="none" />
  </g>
  <g id="JAVASCRIPT">
    <path d="M0 0L1708 0L1708 98L0 98L0 0Z" id="Rectangle-9" fill="url(#gradient_7)" stroke="none" />
    <g id="JavaScript" fill="#EEEEEE" transform="translate(23 0)">
      <path d="M145.26 59.0859Q145.26 64.7259 141.27 67.6659Q137.28 70.6059 131.34 70.6059Q123.18 70.6059 118.8 67.4259L119.64 59.7459L123.24 60.1059L123 65.0259Q124.98 66.0459 126.96 66.4059Q128.94 66.7659 131.1 66.7659Q134.94 66.7659 137.73 65.1159Q140.52 63.4659 140.52 59.5059Q140.52 55.0659 137.46 53.7159Q134.4 52.3659 130.8 51.5259Q128.04 50.9259 125.34 49.9959Q122.64 49.0659 120.84 47.0559Q119.04 45.0459 119.04 41.2059Q119.04 35.6859 122.73 33.0459Q126.42 30.4059 131.46 30.4059Q134.7 30.4059 138 31.3059Q141.3 32.2059 143.16 33.6459L143.52 41.3859L139.92 41.7459L139.32 35.9259Q137.46 34.9659 135.54 34.6359Q133.62 34.3059 131.88 34.3059Q128.22 34.3059 125.97 35.9559Q123.72 37.6059 123.72 40.7259Q123.72 44.3859 126.42 45.6459Q129.12 46.9059 132.42 47.6859Q135.06 48.2859 138.03 49.2159Q141 50.1459 143.13 52.3959Q145.26 54.6459 145.26 59.0859ZM207.06 30.9459L207.06 36.4059L211.62 36.4059L211.62 30.9459L207.06 30.9459ZM20.76 34.8459L25.08 34.8459L25.08 31.0059L8.64 31.0059L8.64 34.8459L16.38 34.8459L16.38 60.0459Q16.38 62.9859 14.97 64.7259Q13.56 66.4659 10.38 66.4659Q8.4 66.4659 6.93 65.5959Q5.46 64.7259 4.2 62.2659L1.02 64.6659Q2.28 67.3059 4.59 68.9559Q6.9 70.6059 10.74 70.6059Q15.48 70.6059 18.12 67.9659Q20.76 65.3259 20.76 60.0459L20.76 34.8459ZM264.06 70.6059Q271.44 70.6059 272.52 62.8059L269.34 61.7859Q268.74 65.0259 267.39 65.9859Q266.04 66.9459 264.48 66.9459Q262.08 66.9459 261.03 65.4759Q259.98 64.0059 259.98 61.6059L259.98 46.6659L270.42 46.6659L270.42 43.3059L259.98 43.3059L259.98 34.7259L255.78 34.7259L255.78 43.3059L251.46 43.3059L251.46 46.6659L255.78 46.6659L255.78 62.1459Q255.78 66.0459 257.91 68.3259Q260.04 70.6059 264.06 70.6059ZM36.66 43.3659Q34.32 43.9659 32.22 45.3459L31.26 51.5259L34.74 51.9459L35.76 47.3259Q37.98 46.2459 40.92 46.2459Q44.52 46.2459 45.75 48.0459Q46.98 49.8459 46.98 52.7259L46.98 55.1259Q45.9 55.0059 44.67 54.9459Q43.44 54.8859 42.24 54.8859Q37.74 54.8859 33.75 56.4759Q29.76 58.0659 29.76 63.1059Q29.76 67.3659 32.49 68.9859Q35.22 70.6059 37.86 70.6059Q41.1 70.6059 43.41 68.9259Q45.72 67.2459 46.98 65.0859L46.98 65.2059Q47.1 70.6059 51.84 70.6059Q53.7 70.6059 55.32 69.7059L55.26 66.9459Q54.48 67.3059 53.46 67.3059Q51.18 67.3059 51.18 64.4259L51.18 51.7059Q51.18 42.7659 41.64 42.7659Q39 42.7659 36.66 43.3659ZM96.18 43.3659Q93.84 43.9659 91.74 45.3459L90.78 51.5259L94.26 51.9459L95.28 47.3259Q97.5 46.2459 100.44 46.2459Q104.04 46.2459 105.27 48.0459Q106.5 49.8459 106.5 52.7259L106.5 55.1259Q105.42 55.0059 104.19 54.9459Q102.96 54.8859 101.76 54.8859Q97.26 54.8859 93.27 56.4759Q89.28 58.0659 89.28 63.1059Q89.28 67.3659 92.01 68.9859Q94.74 70.6059 97.38 70.6059Q100.62 70.6059 102.93 68.9259Q105.24 67.2459 106.5 65.0859L106.5 65.2059Q106.62 70.6059 111.36 70.6059Q113.22 70.6059 114.84 69.7059L114.78 66.9459Q114 67.3059 112.98 67.3059Q110.7 67.3059 110.7 64.4259L110.7 51.7059Q110.7 42.7659 101.16 42.7659Q98.52 42.7659 96.18 43.3659ZM170.37 67.5459Q172.98 64.4859 173.52 61.0059L169.92 60.2259Q168.72 67.0059 162.72 67.0059Q158.76 67.0059 156.66 64.3059Q154.56 61.6059 154.56 56.8059Q154.56 52.4859 156.42 49.4259Q158.28 46.3659 162.54 46.3659Q165.84 46.3659 168.24 47.8659L169.26 52.3659L172.74 51.9459L171.72 45.5259Q169.68 43.9659 167.46 43.3659Q165.24 42.7659 162.6 42.7659Q156.36 42.7659 153.24 47.1459Q150.12 51.5259 150.12 57.0459Q150.12 63.4659 153.42 67.0359Q156.72 70.6059 162.24 70.6059Q167.76 70.6059 170.37 67.5459ZM248.28 55.9059Q248.28 59.4459 247.05 62.8359Q245.82 66.2259 243.15 68.4159Q240.48 70.6059 236.1 70.6059Q230.04 70.6059 227.28 66.1059L227.28 79.3659L233.46 79.3659L233.46 82.7859L218.34 82.7859L218.34 79.3659L223.08 79.3659L223.08 46.7259L218.28 46.7259L218.28 43.3059L227.28 43.3059L227.28 48.8859Q228.48 46.4859 230.76 44.6259Q233.04 42.7659 236.76 42.7659Q241.92 42.7659 245.1 46.2459Q248.28 49.7259 248.28 55.9059ZM192.6 42.8259Q195.48 42.8259 197.16 44.2059L198.18 50.9259L194.76 51.3459L193.74 46.7859Q192.72 46.4259 191.7 46.4259Q189.36 46.4259 187.8 48.3759Q186.24 50.3259 186.24 53.4459L186.24 66.5859L192.42 66.5859L192.42 70.0059L177.36 70.0059L177.36 66.5859L182.04 66.5859L182.04 46.7259L177.24 46.7259L177.24 43.3059L186 43.3059L186 48.1059Q186.78 45.8859 188.55 44.3559Q190.32 42.8259 192.6 42.8259ZM86.34 46.7259L83.1 46.7259L73.32 70.0059L70.08 70.0059L59.88 46.7259L56.76 46.7259L56.76 43.3059L69.06 43.3059L69.06 46.7259L64.44 46.7259L71.88 64.3059L72.24 64.3059L78.9 46.7259L74.64 46.7259L74.64 43.3059L86.34 43.3059L86.34 46.7259ZM202.8 70.0059L216.36 70.0059L216.36 66.5859L211.68 66.5859L211.68 43.3059L202.68 43.3059L202.68 46.7259L207.48 46.7259L207.48 66.5859L202.8 66.5859L202.8 70.0059ZM243.84 56.2659Q243.84 51.4659 241.5 48.9159Q239.16 46.3659 235.68 46.3659Q232.08 46.3659 229.74 49.2159Q227.4 52.0659 227.28 55.1259L227.28 59.0859Q227.28 62.4459 229.62 64.7259Q231.96 67.0059 235.26 67.0059Q239.76 67.0059 241.8 63.7659Q243.84 60.5259 243.84 56.2659ZM46.98 57.9459L46.98 59.9859Q46.74 63.2859 44.31 65.2059Q41.88 67.1259 39.12 67.1259Q37.38 67.1259 35.76 66.1659Q34.14 65.2059 34.14 62.6259Q34.14 59.5059 36.57 58.5759Q39 57.6459 42 57.6459Q43.32 57.6459 44.58 57.7659Q45.84 57.8859 46.98 57.9459ZM106.5 57.9459L106.5 59.9859Q106.26 63.2859 103.83 65.2059Q101.4 67.1259 98.64 67.1259Q96.9 67.1259 95.28 66.1659Q93.66 65.2059 93.66 62.6259Q93.66 59.5059 96.09 58.5759Q98.52 57.6459 101.52 57.6459Q102.84 57.6459 104.1 57.7659Q105.36 57.8859 106.5 57.9459Z" />
    </g>
    <path d="M0 0L23 0L23 98L0 98L0 0Z" transform="translate(1347 0)" id="Rectangle-10" fill="url(#gradient_2)" stroke="none" />
  </g>
</svg>